<svg xmlns="http://www.w3.org/2000/svg" viewBox="0 0 48 48"><g data-name="12-code"><path d="M30.945 41.891a10.946 10.946 0 1 1 7.741-18.685 10.946 10.946 0 0 1-7.741 18.685zm0-19.891a8.946 8.946 0 1 0 6.326 2.62A8.89 8.89 0 0 0 30.945 22zM45.011 48a2.972 2.972 0 0 1-2.114-.875l-4.219-4.22a1 1 0 0 1 0-1.414l2.813-2.813a1 1 0 0 1 .707-.293 1 1 0 0 1 .707.293l4.219 4.222a2.989 2.989 0 0 1-2.113 5.1zM40.8 42.2l3.513 3.512a1.011 1.011 0 0 0 1.4 0 .987.987 0 0 0 0-1.4L42.2 40.8z"/><path d="m37.271 38.685 1.415-1.414 2.812 2.813-1.414 1.414zM8 11H5V9h3a1 1 0 0 0 1-1V3.414l-7.293 7.293L.293 9.293l9-9A1 1 0 0 1 11 1v7a3 3 0 0 1-3 3z"/><path d="M33 48H3a3 3 0 0 1-3-3V10a1 1 0 0 1 .293-.707l9-9A1 1 0 0 1 10 0h23a3 3 0 0 1 3 3v19h-2V3a1 1 0 0 0-1-1H10.414L2 10.414V45a1 1 0 0 0 1 1h30a1 1 0 0 0 1-1v-5h2v5a3 3 0 0 1-3 3z"/><path d="m26.293 34.707-3-3a1 1 0 0 1 0-1.414l3-3 1.414 1.414L25.414 31l2.293 2.293zM35.707 34.707l-1.414-1.414L36.586 31l-2.293-2.293 1.414-1.414 3 3a1 1 0 0 1 0 1.414zM28.168 33.446l4-6 1.664 1.11-4 6zM6 14h2v2H6zM10 14h20v2H10zM10 19h12v2H10zM6 19h2v2H6zM6 24h2v2H6zM10 24h9v2h-9zM10 29h8v2h-8zM6 29h2v2H6zM6 34h2v2H6zM10 34h9v2h-9zM10 39h11v2H10zM6 39h2v2H6zM32 9h-2V6h-3V4h4a1 1 0 0 1 1 1zM23 4h2v2h-2z"/></g></svg>